<?xml version="1.0" encoding="UTF-8" standalone="no"?>
<!-- Generator: Adobe Illustrator 14.0.0, SVG Export Plug-In . SVG Version: 6.00 Build 43363)  -->

<svg
   xmlns:dc="http://purl.org/dc/elements/1.1/"
   xmlns:cc="http://creativecommons.org/ns#"
   xmlns:rdf="http://www.w3.org/1999/02/22-rdf-syntax-ns#"
   xmlns:svg="http://www.w3.org/2000/svg"
   xmlns="http://www.w3.org/2000/svg"
   xmlns:xlink="http://www.w3.org/1999/xlink"
   xmlns:sodipodi="http://sodipodi.sourceforge.net/DTD/sodipodi-0.dtd"
   xmlns:inkscape="http://www.inkscape.org/namespaces/inkscape"
   version="1.1"
   id="Layer_1"
   x="0px"
   y="0px"
   width="578.971px"
   height="427.479px"
   viewBox="0 0 578.971 427.479"
   enable-background="new 0 0 578.971 427.479"
   xml:space="preserve"
   inkscape:version="0.48.3.1 r9886"
   sodipodi:docname="Top_antitop_quark_event.svg"><metadata
   id="metadata299"><rdf:RDF><cc:Work
       rdf:about=""><dc:format>image/svg+xml</dc:format><dc:type
         rdf:resource="http://purl.org/dc/dcmitype/StillImage" /></cc:Work></rdf:RDF></metadata><defs
   id="defs297"><radialGradient
   id="radialGradient3307"
   cx="289.3945"
   cy="229.3311"
   r="27.976"
   gradientTransform="matrix(1,0,0,-1,0,427.4785)"
   gradientUnits="userSpaceOnUse">
		<stop
   offset="0"
   style="stop-color:#FDB82D"
   id="stop3309" />
		<stop
   offset="0.113"
   style="stop-color:#FCB02C"
   id="stop3311" />
		<stop
   offset="0.3071"
   style="stop-color:#F99C2A"
   id="stop3313" />
		<stop
   offset="0.5589"
   style="stop-color:#F47D27"
   id="stop3315" />
		<stop
   offset="0.78359568"
   style="stop-color:#EF4824"
   id="stop3317" />
		<stop
   offset="1"
   style="stop-color:#ED1C24"
   id="stop3319" />
	</radialGradient>
	
	
	
	
	
	
	
	
	
	
	
	
	
	
	
	
	
		<radialGradient
   gradientUnits="userSpaceOnUse"
   gradientTransform="matrix(1,0,0,-1,0,427.4785)"
   r="27.976"
   cy="229.3311"
   cx="289.3945"
   id="SVGID_1_">
		<stop
   id="stop47"
   style="stop-color:#FDB82D"
   offset="0" />
		<stop
   id="stop49"
   style="stop-color:#FCB02C"
   offset="0.113" />
		<stop
   id="stop51"
   style="stop-color:#F99C2A"
   offset="0.3071" />
		<stop
   id="stop53"
   style="stop-color:#F47D27"
   offset="0.5589" />
		<stop
   id="stop55"
   style="stop-color:#EF4824"
   offset="0.8556" />
		<stop
   id="stop57"
   style="stop-color:#ED1C24"
   offset="1" />
	</radialGradient>
	
<radialGradient
   inkscape:collect="always"
   xlink:href="#radialGradient3307"
   id="radialGradient4097"
   cx="261.53555"
   cy="174.56058"
   fx="261.53555"
   fy="174.56058"
   r="24.225092"
   gradientUnits="userSpaceOnUse" /><filter
   inkscape:collect="always"
   id="filter4135"><feGaussianBlur
     inkscape:collect="always"
     stdDeviation="1.248689"
     id="feGaussianBlur4137" /></filter><radialGradient
   inkscape:collect="always"
   xlink:href="#radialGradient3307-1"
   id="radialGradient4097-1"
   cx="261.53555"
   cy="174.56058"
   fx="261.53555"
   fy="174.56058"
   r="24.225092"
   gradientUnits="userSpaceOnUse" /><radialGradient
   id="radialGradient3307-1"
   cx="289.3945"
   cy="229.3311"
   r="27.976"
   gradientTransform="matrix(1,0,0,-1,0,427.4785)"
   gradientUnits="userSpaceOnUse"><stop
     offset="0"
     style="stop-color:#FDB82D"
     id="stop3309-2" /><stop
     offset="0.113"
     style="stop-color:#FCB02C"
     id="stop3311-0" /><stop
     offset="0.3071"
     style="stop-color:#F99C2A"
     id="stop3313-7" /><stop
     offset="0.5589"
     style="stop-color:#F47D27"
     id="stop3315-6" /><stop
     offset="0.78359568"
     style="stop-color:#EF4824"
     id="stop3317-8" /><stop
     offset="1"
     style="stop-color:#ED1C24"
     id="stop3319-9" /></radialGradient><radialGradient
   r="24.225092"
   fy="174.56058"
   fx="261.53555"
   cy="174.56058"
   cx="261.53555"
   gradientUnits="userSpaceOnUse"
   id="radialGradient4160"
   xlink:href="#radialGradient3307-1"
   inkscape:collect="always" /></defs><sodipodi:namedview
   pagecolor="#ffffff"
   bordercolor="#666666"
   borderopacity="1"
   objecttolerance="10"
   gridtolerance="10"
   guidetolerance="10"
   inkscape:pageopacity="0"
   inkscape:pageshadow="2"
   inkscape:window-width="1280"
   inkscape:window-height="996"
   id="namedview295"
   showgrid="false"
   inkscape:zoom="0.92634911"
   inkscape:cx="429.9523"
   inkscape:cy="380.78748"
   inkscape:window-x="1600"
   inkscape:window-y="0"
   inkscape:window-maximized="1"
   inkscape:current-layer="Layer_1" />
<path
   sodipodi:type="star"
   style="fill:url(#radialGradient4160);fill-opacity:1;stroke:#940011;stroke-width:1;stroke-miterlimit:4;stroke-opacity:1;stroke-dasharray:none;stroke-dashoffset:0"
   id="path3321-5"
   sodipodi:sides="8"
   sodipodi:cx="261.53555"
   sodipodi:cy="174.56058"
   sodipodi:r1="23.741978"
   sodipodi:r2="11.870989"
   sodipodi:arg1="0.037717952"
   sodipodi:arg2="0.43041703"
   inkscape:flatsided="false"
   inkscape:rounded="0"
   inkscape:randomized="0"
   d="m 285.26064,175.45586 -12.93683,4.05789 5.35485,12.45606 -12.01708,-6.27836 -5.02131,12.59422 -4.05789,-12.93684 -12.45606,5.35486 6.27836,-12.01708 -12.59422,-5.02132 12.93684,-4.05788 -5.35486,-12.45607 12.01708,6.27837 5.02132,-12.59422 4.05788,12.93683 12.45607,-5.35485 -6.27837,12.01708 z"
   transform="matrix(0.86948446,0.20179154,-0.17345048,0.9626866,98.297354,-22.957766)" /><path
   sodipodi:type="star"
   style="fill:url(#radialGradient4097);fill-opacity:1;stroke:#940011;stroke-width:1;stroke-miterlimit:4;stroke-opacity:1;stroke-dasharray:none;stroke-dashoffset:0;filter:url(#filter4135)"
   id="path3321"
   sodipodi:sides="8"
   sodipodi:cx="261.53555"
   sodipodi:cy="174.56058"
   sodipodi:r1="23.741978"
   sodipodi:r2="11.870989"
   sodipodi:arg1="0.037717952"
   sodipodi:arg2="0.43041703"
   inkscape:flatsided="false"
   inkscape:rounded="0"
   inkscape:randomized="0"
   d="m 285.26064,175.45586 -12.93683,4.05789 5.35485,12.45606 -12.01708,-6.27836 -5.02131,12.59422 -4.05789,-12.93684 -12.45606,5.35486 6.27836,-12.01708 -12.59422,-5.02132 12.93684,-4.05788 -5.35486,-12.45607 12.01708,6.27837 5.02132,-12.59422 4.05788,12.93683 12.45607,-5.35485 -6.27837,12.01708 z"
   transform="translate(34.789865,22.829805)" /><g
   id="g4">
		<line
   style="fill:none;stroke:#acacac"
   id="line6"
   y2="285.397"
   x2="71.894997"
   y1="281.397"
   x1="153.895" />
		<line
   style="fill:none;stroke:#acacac"
   id="line8"
   y2="293.897"
   x2="73.894997"
   y1="285.397"
   x1="150.895" />
		<line
   style="fill:none;stroke:#acacac"
   id="line10"
   y2="300.897"
   x2="74.894997"
   y1="288.397"
   x1="151.395" />
		<line
   style="fill:none;stroke:#acacac"
   id="line12"
   y2="308.897"
   x2="75.394997"
   y1="290.897"
   x1="152.395" />
		<line
   style="fill:none;stroke:#acacac"
   id="line14"
   y2="316.897"
   x2="77.894997"
   y1="292.397"
   x1="155.395" />
	</g><line
   style="fill:none;stroke:#acacac"
   id="line16"
   y2="396.897"
   x2="148.395"
   y1="332.397"
   x1="188.395" /><line
   style="fill:none;stroke:#acacac"
   id="line18"
   y2="400.397"
   x2="154.895"
   y1="334.897"
   x1="190.895" /><line
   style="fill:none;stroke:#acacac"
   id="line20"
   y2="402.897"
   x2="161.395"
   y1="336.397"
   x1="193.395" /><line
   style="fill:none;stroke:#acacac"
   id="line22"
   y2="403.897"
   x2="168.895"
   y1="337.897"
   x1="195.395" /><line
   style="fill:none;stroke:#acacac"
   id="line24"
   y2="407.397"
   x2="176.395"
   y1="337.897"
   x1="198.895" /><line
   style="fill:none;stroke:#acacac"
   id="line26"
   y2="383.397"
   x2="335.89499"
   y1="309.897"
   x1="304.896" /><line
   style="fill:none;stroke:#acacac"
   id="line28"
   y2="382.897"
   x2="344.39499"
   y1="310.897"
   x1="308.89499" /><line
   style="fill:none;stroke:#acacac"
   id="line30"
   y2="378.897"
   x2="349.89499"
   y1="308.897"
   x1="311.39499" /><line
   style="fill:none;stroke:#acacac"
   id="line32"
   y2="373.897"
   x2="356.39499"
   y1="308.397"
   x1="314.89499" /><line
   style="fill:none;stroke:#acacac"
   id="line34"
   y2="369.897"
   x2="364.39499"
   y1="304.897"
   x1="315.39499" /><line
   style="fill:none;stroke:#acacac"
   id="line36"
   y2="26.396999"
   x2="232.895"
   y1="78.897003"
   x1="271.89499" /><line
   style="fill:none;stroke:#acacac"
   id="line38"
   y2="22.396999"
   x2="237.895"
   y1="77.397003"
   x1="273.89499" /><line
   style="fill:none;stroke:#acacac"
   id="line40"
   y2="19.896999"
   x2="242.895"
   y1="76.397003"
   x1="275.39499" /><line
   style="fill:none;stroke:#acacac"
   id="line42"
   y2="16.396999"
   x2="248.395"
   y1="74.897003"
   x1="277.89499" /><line
   style="fill:none;stroke:#acacac"
   id="line44"
   y2="14.897"
   x2="254.895"
   y1="73.897003"
   x1="280.39499" />
<circle
   fill="#FBDF00"
   cx="280.895"
   cy="82.897"
   r="10"
   id="circle61" />
<circle
   fill="#242058"
   cx="310.395"
   cy="139.397"
   r="10"
   id="circle63" />
<circle
   fill="none"
   stroke="#E06441"
   stroke-width="2"
   cx="368.395"
   cy="102.397"
   r="10"
   id="circle65" />
<circle
   fill="none"
   stroke="#0A8543"
   stroke-width="2"
   cx="392.395"
   cy="40.397"
   r="10"
   id="circle67" />
<circle
   fill="#C71E66"
   cx="434.895"
   cy="87.397"
   r="10"
   id="circle69" />
<circle
   fill="#FFFFFF"
   stroke="#FBDF00"
   stroke-width="2"
   cx="307.402"
   cy="300.406"
   r="10"
   id="circle71" />
<circle
   fill="none"
   stroke="#242058"
   stroke-width="2"
   cx="276.577"
   cy="255.097"
   r="10"
   id="circle73" />
<circle
   fill="#E06441"
   cx="219.026"
   cy="282.653"
   r="10"
   id="circle75" />
<circle
   fill="#FFFFFF"
   stroke="#39B6E6"
   stroke-width="2"
   cx="162.361"
   cy="286.405"
   r="10"
   id="circle77" />
<circle
   fill="#FBDF00"
   cx="198.026"
   cy="328.217"
   r="10"
   id="circle79" />
<line
   x1="295.85599"
   y1="198.91177"
   x2="304.435"
   y2="154.397"
   id="line81"
   style="fill:none;stroke:#070909;stroke-width:1.16143548" />
<path
   fill="#070909"
   d="M305.953,148.557c0.305,3.013,1.159,6.876,2.451,9.468l-4.169-2.86l-5.034,0.468  C301.591,153.998,304.218,151.04,305.953,148.557z"
   id="path83" />
<line
   fill="none"
   stroke="#070909"
   x1="304.896"
   y1="124.897"
   x2="289.895"
   y2="96.897"
   id="line85" />
<path
   fill="#070909"
   d="M287.045,91.578c2.27,2.005,5.519,4.262,8.228,5.289l-5.004,0.729l-3.378,3.761  C287.537,98.533,287.458,94.578,287.045,91.578z"
   id="path87" />
<path
   fill="none"
   stroke="#070909"
   d="M320.395,127.397c0.877-0.485,1.699-1.041,2.587-1.503c1.141-0.594,1.993-0.793,3.319-0.725  c0.88,0.045,2.162,0.197,2.857-0.497c1.208-1.202-0.707-4.626,2.104-4.542c1.223,0.037,2.796,1.055,3.896,0.833  c1.234-0.249,1.188-1.689,1.009-2.652c-0.205-1.106-0.015-3.158,1.32-3.547c1.779-0.519,2.634,1.54,4.244,1.335  c1.702-0.216,0.869-2.455,0.888-3.573c0.019-1.318,0.849-2.382,2.178-2.454c1.411-0.076,2.303,1.586,3.723,1.664  c1.539,0.083,3.109-1.636,4.375-2.339"
   id="path89" />
<path
   fill="#070909"
   d="M358.17,106.466c-1.971,2.3-4.178,5.583-5.162,8.308l-0.806-4.992l-3.813-3.321  C351.223,107.064,355.176,106.925,358.17,106.466z"
   id="path91" />
<line
   fill="none"
   stroke="#070909"
   x1="381.395"
   y1="100.397"
   x2="418.895"
   y2="89.897"
   id="line93" />
<path
   fill="#070909"
   d="M424.707,88.27c-2.45,1.781-5.358,4.462-6.948,6.883l0.374-5.042l-2.938-4.115  C417.81,87.24,421.688,88.021,424.707,88.27z"
   id="path95" />
<line
   fill="none"
   stroke="#070909"
   x1="373.895"
   y1="87.397"
   x2="385.395"
   y2="57.897"
   id="line97" />
<path
   fill="#070909"
   d="M387.587,52.274c-0.05,3.029,0.346,6.964,1.325,9.69l-3.806-3.33l-5.056-0.125  C382.619,57.167,385.575,54.538,387.587,52.274z"
   id="path99" />
<line
   x1="296.01291"
   y1="197.99173"
   x2="281.20853"
   y2="237.73944"
   id="line101"
   style="fill:none;stroke:#070909;stroke-width:1.31511343" />
<path
   fill="#070909"
   d="M279.13,243.619c-0.095-3.028-0.678-6.94-1.787-9.616l3.96,3.145l5.055-0.117  C283.859,238.494,281.033,241.262,279.13,243.619z"
   id="path103" />
<path
   fill="none"
   stroke="#070909"
   d="M262.302,259.822c-1.449,0.841-2.911,1.825-4.362,2.733c-1.103,0.691-2.595,1.077-3.892,0.898  c-0.516-0.071-1.005-0.419-1.496-0.469c-2.639-0.27-1.378,3.576-2.503,4.808c-1.603,1.754-3.941-0.864-5.805-0.291  c-1.83,0.563-0.264,3.239-1.526,4.313c-1.557,1.324-3.749-1.053-5.399-0.034c-0.914,0.563-0.741,1.628-1.181,2.464  c-0.453,0.861-1.606,1.306-2.485,1.65"
   id="path105" />
<path
   fill="#070909"
   d="M228.034,278.099c2.259-2.017,4.883-4.977,6.222-7.546l0.134,5.056l3.336,3.799  C234.999,278.433,231.062,278.043,228.034,278.099z"
   id="path107" />
<line
   fill="none"
   stroke="#070909"
   x1="204.395"
   y1="283.397"
   x2="180.395"
   y2="285.397"
   id="line109" />
<path
   fill="#070909"
   d="M174.381,285.897c2.742-1.285,6.104-3.369,8.123-5.447l-1.319,4.882l2.109,4.597  C180.959,288.212,177.298,286.712,174.381,285.897z"
   id="path111" />
<line
   fill="none"
   stroke="#070909"
   x1="213.895"
   y1="294.397"
   x2="205.895"
   y2="310.897"
   id="line113" />
<path
   fill="#070909"
   d="M203.262,316.328c0.291-3.017,0.21-6.97-0.55-9.767l3.528,3.623l5.029,0.526  C208.604,311.847,205.449,314.231,203.262,316.328z"
   id="path115" />
<line
   fill="none"
   stroke="#070909"
   x1="284.395"
   y1="266.397"
   x2="296.896"
   y2="285.397"
   id="line117" />
<path
   fill="#070909"
   d="M300.212,290.438c-2.441-1.793-5.88-3.748-8.67-4.526l4.917-1.177l3.026-4.051  C299.097,283.556,299.531,287.487,300.212,290.438z"
   id="path119" />
<linearGradient
   id="SVGID_2_"
   gradientUnits="userSpaceOnUse"
   x1="9.895"
   y1="231.25"
   x2="45.0898"
   y2="231.25"
   gradientTransform="matrix(1 0 0 -1 0 427.4785)">
	<stop
   offset="0"
   style="stop-color:#FFFFFF"
   id="stop122" />
	<stop
   offset="0.2965"
   style="stop-color:#E3A08B"
   id="stop124" />
	<stop
   offset="0.7091"
   style="stop-color:#C72128"
   id="stop126" />
</linearGradient>


<linearGradient
   id="SVGID_3_"
   gradientUnits="userSpaceOnUse"
   x1="68.895"
   y1="230.583"
   x2="104.0898"
   y2="230.583"
   gradientTransform="matrix(1 0 0 -1 0 427.4785)">
	<stop
   offset="0"
   style="stop-color:#FFFFFF"
   id="stop133" />
	<stop
   offset="0.2965"
   style="stop-color:#E3A08B"
   id="stop135" />
	<stop
   offset="0.7091"
   style="stop-color:#C72128"
   id="stop137" />
</linearGradient>


<linearGradient
   id="SVGID_4_"
   gradientUnits="userSpaceOnUse"
   x1="128.229"
   y1="230.583"
   x2="163.4238"
   y2="230.583"
   gradientTransform="matrix(1 0 0 -1 0 427.4785)">
	<stop
   offset="0"
   style="stop-color:#FFFFFF"
   id="stop144" />
	<stop
   offset="0.2965"
   style="stop-color:#E3A08B"
   id="stop146" />
	<stop
   offset="0.7091"
   style="stop-color:#C72128"
   id="stop148" />
</linearGradient>


<linearGradient
   id="SVGID_5_"
   gradientUnits="userSpaceOnUse"
   x1="186.228"
   y1="229.916"
   x2="221.4229"
   y2="229.916"
   gradientTransform="matrix(1 0 0 -1 0 427.4785)">
	<stop
   offset="0"
   style="stop-color:#FFFFFF"
   id="stop155" />
	<stop
   offset="0.2965"
   style="stop-color:#E3A08B"
   id="stop157" />
	<stop
   offset="0.7091"
   style="stop-color:#C72128"
   id="stop159" />
</linearGradient>


<linearGradient
   id="SVGID_6_"
   gradientUnits="userSpaceOnUse"
   x1="246.229"
   y1="229.25"
   x2="281.4238"
   y2="229.25"
   gradientTransform="matrix(1 0 0 -1 0 427.4785)">
	<stop
   offset="0"
   style="stop-color:#FFFFFF"
   id="stop166" />
	<stop
   offset="0.2965"
   style="stop-color:#E3A08B"
   id="stop168" />
	<stop
   offset="0.7091"
   style="stop-color:#C72128"
   id="stop170" />
</linearGradient>


<linearGradient
   id="SVGID_7_"
   gradientUnits="userSpaceOnUse"
   x1="-130.1328"
   y1="682.4375"
   x2="-94.9385"
   y2="682.4375"
   gradientTransform="matrix(-1 0 0 1 211.4277 -484.5381)">
	<stop
   offset="0"
   style="stop-color:#FFFFFF"
   id="stop177" />
	<stop
   offset="0.2965"
   style="stop-color:#E3A08B"
   id="stop179" />
	<stop
   offset="0.7091"
   style="stop-color:#C72128"
   id="stop181" />
</linearGradient>


<linearGradient
   id="SVGID_8_"
   gradientUnits="userSpaceOnUse"
   x1="-188.4668"
   y1="682.1055"
   x2="-153.2725"
   y2="682.1055"
   gradientTransform="matrix(-1 0 0 1 211.4277 -484.5381)">
	<stop
   offset="0"
   style="stop-color:#FFFFFF"
   id="stop188" />
	<stop
   offset="0.2965"
   style="stop-color:#E3A08B"
   id="stop190" />
	<stop
   offset="0.7091"
   style="stop-color:#C72128"
   id="stop192" />
</linearGradient>


<linearGradient
   id="SVGID_9_"
   gradientUnits="userSpaceOnUse"
   x1="-245.1328"
   y1="682.1055"
   x2="-209.9385"
   y2="682.1055"
   gradientTransform="matrix(-1 0 0 1 211.4277 -484.5381)">
	<stop
   offset="0"
   style="stop-color:#FFFFFF"
   id="stop199" />
	<stop
   offset="0.2965"
   style="stop-color:#E3A08B"
   id="stop201" />
	<stop
   offset="0.7091"
   style="stop-color:#C72128"
   id="stop203" />
</linearGradient>


<linearGradient
   id="SVGID_10_"
   gradientUnits="userSpaceOnUse"
   x1="-305.1328"
   y1="681.4375"
   x2="-269.9385"
   y2="681.4375"
   gradientTransform="matrix(-1 0 0 1 211.4277 -484.5381)">
	<stop
   offset="0"
   style="stop-color:#FFFFFF"
   id="stop210" />
	<stop
   offset="0.2965"
   style="stop-color:#E3A08B"
   id="stop212" />
	<stop
   offset="0.7091"
   style="stop-color:#C72128"
   id="stop214" />
</linearGradient>


<linearGradient
   id="SVGID_11_"
   gradientUnits="userSpaceOnUse"
   x1="-363.7988"
   y1="681.4375"
   x2="-328.6045"
   y2="681.4375"
   gradientTransform="matrix(-1 0 0 1 211.4277 -484.5381)">
	<stop
   offset="0"
   style="stop-color:#FFFFFF"
   id="stop221" />
	<stop
   offset="0.2965"
   style="stop-color:#E3A08B"
   id="stop223" />
	<stop
   offset="0.7091"
   style="stop-color:#C72128"
   id="stop225" />
</linearGradient>


<path
   d="M48.632,295.94h1.496v7.666c0,3.043-1.496,3.979-3.468,3.979c-0.561,0-1.224-0.118-1.581-0.271l0.204-1.207  c0.306,0.119,0.748,0.222,1.258,0.222c1.326,0,2.091-0.595,2.091-2.838V295.94z"
   id="path231" />
<path
   d="M53.375,303.558c0.034,2.022,1.309,2.854,2.822,2.854c1.071,0,1.734-0.187,2.278-0.425l0.272,1.07  c-0.527,0.238-1.445,0.526-2.754,0.526c-2.533,0-4.045-1.683-4.045-4.164S53.41,299,55.806,299c2.703,0,3.4,2.347,3.4,3.858  c0,0.307-0.017,0.527-0.051,0.697h-5.78V303.558z M57.761,302.485c0.017-0.936-0.391-2.414-2.074-2.414  c-1.53,0-2.176,1.378-2.295,2.414H57.761z"
   id="path233" />
<path
   d="M62.861,297.199v1.972h2.142v1.141h-2.142v4.437c0,1.021,0.289,1.599,1.122,1.599c0.408,0,0.646-0.035,0.867-0.104  l0.068,1.14c-0.289,0.103-0.748,0.203-1.326,0.203c-0.697,0-1.258-0.237-1.615-0.629c-0.408-0.459-0.578-1.188-0.578-2.158v-4.487  h-1.275v-1.14h1.275v-1.528L62.861,297.199z"
   id="path235" />
<path
   d="M212.299,9.274h1.496v7.666c0,3.043-1.496,3.978-3.468,3.978c-0.561,0-1.224-0.118-1.581-0.271l0.204-1.207  c0.306,0.119,0.748,0.221,1.258,0.221c1.326,0,2.091-0.595,2.091-2.838V9.274z"
   id="path237" />
<path
   d="M217.042,16.89c0.034,2.023,1.309,2.855,2.822,2.855c1.071,0,1.734-0.187,2.278-0.425l0.272,1.071  c-0.527,0.238-1.445,0.526-2.754,0.526c-2.533,0-4.045-1.683-4.045-4.164s1.462-4.42,3.858-4.42c2.703,0,3.4,2.346,3.4,3.859  c0,0.306-0.017,0.526-0.051,0.696h-5.78V16.89z M221.428,15.819c0.017-0.936-0.391-2.414-2.074-2.414  c-1.53,0-2.176,1.377-2.295,2.414H221.428z"
   id="path239" />
<path
   d="M226.527,10.532v1.972h2.142v1.14h-2.142v4.437c0,1.02,0.289,1.598,1.122,1.598c0.408,0,0.646-0.034,0.867-0.103l0.068,1.14  c-0.289,0.102-0.748,0.203-1.326,0.203c-0.697,0-1.258-0.237-1.615-0.629c-0.408-0.459-0.578-1.189-0.578-2.158v-4.487h-1.275v-1.14  h1.275v-1.529L226.527,10.532z"
   id="path241" />
<path
   d="M148.299,407.941h1.496v7.666c0,3.043-1.496,3.978-3.468,3.978c-0.561,0-1.224-0.118-1.581-0.271l0.204-1.207  c0.306,0.118,0.748,0.221,1.258,0.221c1.326,0,2.091-0.595,2.091-2.838V407.941z"
   id="path243" />
<path
   d="M153.042,415.557c0.034,2.023,1.309,2.855,2.822,2.855c1.071,0,1.734-0.188,2.278-0.425l0.272,1.07  c-0.527,0.238-1.445,0.526-2.754,0.526c-2.533,0-4.045-1.683-4.045-4.164c0-2.48,1.462-4.42,3.858-4.42c2.703,0,3.4,2.346,3.4,3.859  c0,0.306-0.017,0.525-0.051,0.695h-5.78V415.557z M157.428,414.486c0.017-0.937-0.391-2.414-2.074-2.414  c-1.53,0-2.176,1.377-2.295,2.414H157.428z"
   id="path245" />
<path
   d="M162.528,409.199v1.972h2.142v1.14h-2.142v4.438c0,1.02,0.289,1.598,1.122,1.598c0.408,0,0.646-0.033,0.867-0.103  l0.068,1.14c-0.289,0.103-0.748,0.203-1.326,0.203c-0.697,0-1.258-0.237-1.615-0.629c-0.408-0.459-0.578-1.189-0.578-2.158v-4.486  h-1.275v-1.141h1.275v-1.529L162.528,409.199z"
   id="path247" />
<path
   d="M356.299,383.94h1.496v7.666c0,3.043-1.496,3.979-3.468,3.979c-0.563,0-1.224-0.118-1.581-0.271l0.204-1.207  c0.306,0.119,0.748,0.222,1.258,0.222c1.325,0,2.091-0.595,2.091-2.838V383.94L356.299,383.94z"
   id="path249" />
<path
   d="M361.042,391.558c0.034,2.022,1.31,2.854,2.821,2.854c1.07,0,1.733-0.187,2.277-0.425l0.272,1.07  c-0.527,0.238-1.445,0.526-2.754,0.526c-2.533,0-4.046-1.683-4.046-4.164s1.462-4.42,3.857-4.42c2.703,0,3.4,2.347,3.4,3.858  c0,0.307-0.018,0.527-0.052,0.697h-5.777V391.558z M365.428,390.485c0.019-0.936-0.391-2.414-2.074-2.414  c-1.528,0-2.176,1.378-2.295,2.414H365.428z"
   id="path251" />
<path
   d="M370.528,385.199v1.972h2.143v1.141h-2.143v4.437c0,1.021,0.289,1.599,1.122,1.599c0.407,0,0.646-0.035,0.865-0.104  l0.068,1.14c-0.289,0.103-0.748,0.203-1.326,0.203c-0.695,0-1.258-0.237-1.614-0.629c-0.406-0.459-0.576-1.188-0.576-2.158v-4.487  h-1.275v-1.14h1.275v-1.528L370.528,385.199z"
   id="path253" />
<path
   d="M325.348,145.865l-0.373,1.972h1.972l-0.222,1.105h-1.972l-0.748,3.995c-0.102,0.458-0.17,0.884-0.17,1.309  c0,0.493,0.238,0.799,0.782,0.799c0.255,0,0.476-0.017,0.662-0.068l-0.067,1.105c-0.255,0.102-0.68,0.153-1.088,0.153  c-1.241,0-1.733-0.748-1.733-1.598c0-0.476,0.067-0.935,0.188-1.53l0.799-4.165h-1.173l0.204-1.105h1.173l0.289-1.53  L325.348,145.865z"
   id="path255" />
<path
   d="M298.879,77.995l-1.088,5.337h0.033c0.729-1.105,1.784-1.683,2.89-1.683c1.803,0,2.48,1.496,2.48,2.958  c0,2.533-1.817,5.644-5.115,5.644c-1.444,0-2.532-0.595-2.532-2.108c0-0.408,0.067-0.901,0.152-1.292l1.768-8.856H298.879z   M297.094,86.885c-0.067,0.289-0.118,0.612-0.103,1.054c0,0.782,0.459,1.207,1.326,1.207c2.123,0,3.416-2.533,3.416-4.369  c0-1.02-0.441-1.955-1.563-1.955c-1.224,0-2.481,1.258-2.89,3.196L297.094,86.885z"
   id="path257" />
<path
   d="M382.39,126.063l-0.562-11.457h1.429l0.237,6.868c0.051,1.479,0.018,2.261,0,2.992h0.034  c0.271-0.748,0.561-1.496,1.188-2.907l3.179-6.953h1.496l0.238,6.596c0.051,1.496,0.051,2.481,0.034,3.229h0.033  c0.341-0.986,0.681-1.904,1.122-2.941l3.076-6.884h1.479l-5.304,11.457h-1.495l-0.289-6.51c-0.068-1.343-0.051-1.989,0.034-3.298  h-0.053c-0.374,1.088-0.68,1.972-1.154,3.009l-3.213,6.799H382.39z"
   id="path259" />
<path
   d="M400.874,107.688v3.995h3.723v1.003h-3.723v4.045h-1.054v-4.045h-3.724v-1.003h3.724v-3.995H400.874z"
   id="path261" />
<path
   d="m 418.71958,45.758021 c -0.271,1.428 0.119,2.346 1.377,2.346 0.867,0 1.666,-0.901 2.107,-1.734 0.17,-0.306 0.289,-0.663 0.356,-1.003 l 0.851,-4.487 h 1.411 l -1.104,5.847 c -0.204,1.071 -0.051,1.394 0.477,1.428 l -0.307,1.088 c -0.152,0.034 -0.221,0.051 -0.459,0.051 -0.663,0 -1.139,-0.408 -1.07,-1.7 h -0.052 c -0.492,0.884 -1.377,1.666 -2.48,1.666 -0.731,0 -1.377,-0.323 -1.666,-0.986 l -0.188,1.105 c -0.17,0.901 -0.407,2.397 -0.355,3.094 h -1.259 c -0.103,-0.476 0.018,-1.7 0.271,-3.043 l 1.615,-8.55 h 1.394 l -0.919,4.878 z"
   id="path263"
   inkscape:connector-curvature="0" />
<path
   d="m 430.84309,32.87601 v 3.995 h 3.723 v 1.003 h -3.723 v 4.045 h -1.054 v -4.045 h -3.724 v -1.003 h 3.724 v -3.995 h 1.054 z"
   id="path265"
   inkscape:connector-curvature="0" />
<path
   d="M451.579,88.503c0.221,1.479,0.459,3.025,0.697,4.539c0.102,0.833,0.187,1.479,0.289,2.244h0.066  c1.037-1.547,2.567-3.978,2.991-5.881c0.068-0.357,0.119-0.646,0.119-0.901h1.377c0,0.187,0,0.442-0.051,0.714  c-0.392,2.21-2.192,4.98-4.198,7.513h-1.343c-0.459-2.737-0.952-5.524-1.429-8.227L451.579,88.503L451.579,88.503z"
   id="path267" />
<path
   d="m 465.14711,99.362821 c -0.213,1.118999 0.093,1.837999 1.079,1.837999 0.68,0 1.306,-0.706 1.651,-1.357999 0.134,-0.24 0.227,-0.52 0.279,-0.786 l 0.666,-3.517 h 1.105 l -0.866,4.581999 c -0.159,0.84 -0.04,1.093 0.373,1.119 l -0.239,0.853 c -0.12,0.026 -0.174,0.04 -0.359,0.04 -0.521,0 -0.893,-0.319 -0.839,-1.332 h -0.04 c -0.387,0.692 -1.079,1.306 -1.944,1.306 -0.573,0 -1.079,-0.253 -1.306,-0.772 l -0.146,0.865 c -0.134,0.706 -0.32,1.879 -0.28,2.425 h -0.984 c -0.08,-0.373 0.014,-1.332 0.213,-2.385 l 1.266,-6.699999 h 1.094 l -0.723,3.822 z"
   id="path269"
   inkscape:connector-curvature="0" />



<path
   d="M296.349,248.2l-0.375,1.971h1.973l-0.221,1.105h-1.974l-0.748,3.994c-0.103,0.459-0.17,0.885-0.17,1.309  c0,0.494,0.237,0.799,0.783,0.799c0.254,0,0.475-0.018,0.661-0.066l-0.067,1.104c-0.254,0.104-0.681,0.152-1.088,0.152  c-1.24,0-1.733-0.747-1.733-1.598c0-0.476,0.067-0.935,0.188-1.529l0.799-4.164h-1.172l0.203-1.105h1.174l0.289-1.529L296.349,248.2  z"
   id="path277" />
<line
   fill="none"
   stroke="#000000"
   x1="291.228"
   y1="245.731"
   x2="299.228"
   y2="245.731"
   id="line279" />
<path
   d="M326.545,287.329l-1.088,5.338h0.034c0.73-1.105,1.785-1.684,2.89-1.684c1.803,0,2.482,1.496,2.482,2.959  c0,2.531-1.819,5.643-5.117,5.643c-1.445,0-2.533-0.594-2.533-2.107c0-0.408,0.068-0.899,0.154-1.291l1.768-8.856L326.545,287.329  L326.545,287.329z M324.76,296.22c-0.066,0.289-0.118,0.611-0.102,1.055c0,0.781,0.459,1.207,1.326,1.207  c2.125,0,3.416-2.532,3.416-4.369c0-1.02-0.441-1.954-1.563-1.954c-1.224,0-2.48,1.258-2.89,3.194L324.76,296.22z"
   id="path281" />
<line
   fill="none"
   stroke="#000000"
   x1="323.227"
   y1="284.731"
   x2="331.227"
   y2="284.731"
   id="line283" />
<path
   d="M208.39,267.396l-0.562-11.457h1.429l0.237,6.869c0.051,1.479,0.018,2.26,0,2.99h0.034c0.272-0.748,0.561-1.496,1.189-2.906  l3.179-6.953h1.496l0.238,6.597c0.051,1.495,0.051,2.481,0.034,3.229h0.033c0.341-0.986,0.681-1.904,1.122-2.941l3.077-6.885h1.479  l-5.304,11.457h-1.495l-0.289-6.511c-0.068-1.342-0.051-1.987,0.034-3.297h-0.052c-0.374,1.088-0.68,1.972-1.155,3.009l-3.213,6.799  H208.39z"
   id="path285" />
<line
   fill="none"
   stroke="#000000"
   x1="223.228"
   y1="253.397"
   x2="231.228"
   y2="253.397"
   id="line287" />
<path
   d="M215.545,324.662l-1.088,5.337h0.034c0.731-1.104,1.785-1.682,2.89-1.682c1.802,0,2.482,1.494,2.482,2.957  c0,2.533-1.819,5.644-5.117,5.644c-1.445,0-2.533-0.595-2.533-2.108c0-0.406,0.068-0.899,0.153-1.291l1.768-8.855L215.545,324.662  L215.545,324.662z M213.76,333.552c-0.068,0.289-0.119,0.612-0.102,1.055c0,0.781,0.459,1.207,1.326,1.207  c2.125,0,3.417-2.532,3.417-4.369c0-1.02-0.442-1.954-1.564-1.954c-1.224,0-2.481,1.258-2.89,3.196L213.76,333.552z"
   id="path289" />
<path
   d="M167.435,271.06c-0.425,0.221-1.275,0.51-2.379,0.51c-2.125,0-3.162-1.428-3.162-3.18c0-2.805,2.074-5.389,5.032-5.389  c0.765,0,1.462,0.221,1.717,0.357l-0.408,1.121c-0.323-0.152-0.782-0.306-1.394-0.306c-2.142,0-3.485,2.107-3.485,4.045  c0,1.326,0.697,2.193,2.04,2.193c0.85,0,1.479-0.256,1.904-0.459L167.435,271.06z"
   id="path291" />
<line
   fill="none"
   stroke="#000000"
   x1="161.227"
   y1="258.731"
   x2="169.227"
   y2="258.731"
   id="line293" />
<text
   xml:space="preserve"
   style="font-size:16px;font-style:italic;font-variant:normal;font-weight:normal;font-stretch:normal;line-height:125%;letter-spacing:0px;word-spacing:0px;fill:#000000;fill-opacity:1;stroke:none;font-family:Nimbus Sans L;-inkscape-font-specification:Nimbus Sans L Italic"
   x="402.27301"
   y="48.487419"
   id="text4191"
   sodipodi:linespacing="125%"><tspan
     sodipodi:role="line"
     id="tspan4193"
     x="402.27301"
     y="48.487419"
     style="font-size:16px;font-style:italic;font-variant:normal;font-weight:normal;font-stretch:normal;font-family:Nimbus Sans L;-inkscape-font-specification:Nimbus Sans L Italic">e/</tspan></text>
<text
   xml:space="preserve"
   style="font-size:12px;font-style:italic;font-variant:normal;font-weight:normal;font-stretch:normal;line-height:125%;letter-spacing:0px;word-spacing:0px;fill:#000000;fill-opacity:1;stroke:none;font-family:Nimbus Sans L;-inkscape-font-specification:Nimbus Sans L Italic"
   x="452.83368"
   y="101.65248"
   id="text4191-4"
   sodipodi:linespacing="125%"><tspan
     sodipodi:role="line"
     id="tspan4193-8"
     x="452.83368"
     y="101.65248"
     style="font-size:12px;font-style:italic;font-variant:normal;font-weight:normal;font-stretch:normal;font-family:Nimbus Sans L;-inkscape-font-specification:Nimbus Sans L Italic">e/</tspan></text>
</svg>